PathFileType	4	(X/Y/Z)	C:/Users/beibeiliu/ov580/test_trc/User3\sequence.22_training_dense_left.trc
DataRate	CameraRate	NumFrames	NumMarkers	Units	OrigDataRate	OrigDataStartFrame	OrigNumFrames
120	120	19	19	mm	120	132	262
Frame#	Time	ThumbCMC			ThumbMCP			ThumbIP			ThumbTip			IndexMCP			IndexPIP			IndexTip			MiddleMCP			MiddlePIP			MiddleTip			RingMCP			RingPIP			RingTip			PinkyMCP			PinkyPIP			PinkyTip			BackHand1			BackHand2			BackHand3	
		X0	Y0	Z0	X1	Y1	Z1	X2	Y2	Z2	X3	Y3	Z3	X4	Y4	Z4	X5	Y5	Z5	X6	Y6	Z6	X7	Y7	Z7	X8	Y8	Z8	X9	Y9	Z9	X10	Y10	Z10	X11	Y11	Z11	X12	Y12	Z12	X13	Y13	Z13	X14	Y14	Z14	X15	Y15	Z15	X16	Y16	Z16	X17	Y17	Z17	X18	Y18	Z18	
131	1.09167	-175.074	1.91108	43.9249	-142.106	-1.74357	34.8488	-114.954	-3.23867	25.7171	-95.1409	-11.5271	13.3779	-162.081	8.8857	-33.264	-142.106	4.17243	-52.8065	-117.404	-11.5284	-57.4355	-171.312	-3.46794	-47.3693	-144.873	-9.65977	-64.8445	-114.01	-30.8362	-57.4104	-180.134	-22.4678	-43.2464	-156.094	-28.1549	-63.1575	-129.93	-42.8601	-57.3234	-187.107	-37.7118	-29.8667	-169.251	-40.3464	-49.7195	-141.085	-47.6972	-56.2647	-215.119	-24.929	-2.28429	-229.097	-24.0145	22.9946	-208.652	2.55458	21.8599	
132	1.1	-177.286	3.40191	38.7767	-142.055	1.95771	33.9299	-115.671	-0.442818	22.8633	-96.9979	-8.21254	15.928	-164.195	-2.25533	-35.9298	-141.278	-10.5329	-55.7567	-115.086	-20.0793	-56.7985	-170.437	-14.977	-50.0534	-144.167	-23.8652	-65.6937	-111.109	-40.524	-54.0763	-177.114	-29.7544	-43.844	-152.395	-40.6723	-60.5697	-125.269	-49.4478	-52.426	-185.684	-47.6017	-28.8015	-164.795	-50.786	-47.4412	-138.204	-58.7513	-48.3803	-211.753	-30.3634	-4.25797	-230.925	-29.9211	24.8708	-208.35	0.680803	12.7681	
133	1.10833	-176.833	4.57291	37.3393	-146.297	2.07688	34.5736	-118.914	-3.15606	23.0922	-94.8904	-9.76389	13.1244	-163.102	-7.49395	-36.0164	-139.174	-19.167	-53.2938	-110.554	-29.9942	-52.2932	-169.834	-24.1351	-48.125	-140.608	-29.2843	-62.6371	-111.717	-48.1442	-50.2681	-179.649	-43.4928	-40.7256	-151.996	-47.4936	-56.343	-122.01	-58.8452	-44.2508	-185.884	-58.8874	-27.8215	-165.349	-62.8764	-44.5176	-139.395	-65.8197	-42.2045	-216.13	-34.9391	-1.45192	-231.711	-34.2231	22.7623	-211.631	-5.6499	13.0814	
134	1.11667	-179.721	1.08398	38.8001	-146.172	-2.76934	29.6478	-119.367	-6.46481	20.6097	-98.4007	-13.9371	14.1141	-160.394	-15.719	-35.2475	-130	-24.6265	-50.6872	-109.279	-39.586	-45.5945	-165.429	-29.5269	-46.1339	-139.277	-40.2259	-59.2782	-105.575	-53.6806	-39.9702	-175.993	-49.9217	-38.9837	-147.166	-56.9007	-51.9771	-119.96	-70.4255	-35.8168	-182.986	-64.4378	-28.163	-159.159	-67.1043	-39.3936	-134.087	-72.8717	-34.7595	-211.074	-40.6523	-4.13861	-229.617	-34.4924	18.1028	-209.276	-6.48249	9.53078	
135	1.125	-181.378	1.02894	39.3389	-147.782	-1.62839	33.0438	-118.545	-8.62423	21.0081	-96.5603	-14.2423	15.8348	-153.307	-25.1864	-35.108	-127.413	-38.6394	-44.4541	-103.28	-50.6618	-36.7346	-161.361	-38.8401	-42.3308	-133.157	-48.2315	-52.2929	-103.303	-67.1746	-29.1009	-168.235	-53.8307	-35.7381	-141.498	-69.6104	-44.6168	-116.311	-76.0019	-27.1447	-180.906	-69.5962	-17.8335	-155.519	-77.9582	-32.5381	-131.287	-84.4731	-27.2972	-210.723	-42.4636	-1.50337	-228.819	-42.5923	19.1357	-207.62	-10.5296	10.079	
136	1.13333	-179.571	-4.42905	34.5714	-145.83	-4.35799	30.0851	-119.691	-7.95925	24.5099	-96.4005	-16.4695	16.8809	-149.253	-33.0052	-31.5337	-124.691	-47.4142	-38.3341	-101.023	-57.8131	-29.1038	-156.443	-48.0841	-38.4137	-125.649	-59.1283	-44.2147	-97.4303	-68.6265	-18.5378	-166.062	-64.7728	-27.8506	-140.183	-75.5675	-35.9439	-112.142	-84.9099	-15.5354	-174.112	-77.5579	-15.7983	-152.666	-88.2203	-22.7506	-123.749	-91.1701	-14.6769	-208.798	-46.6161	2.91757	-228.564	-45.0763	21.3053	-206.735	-17.0671	9.00687	
137	1.14167	-180.35	-5.49634	33.6975	-147.601	-4.0346	32.9302	-118.658	-13.1708	24.3476	-96.3692	-20.5299	20.3288	-149.234	-37.6356	-26.0069	-118.077	-50.3308	-32.9107	-93.4005	-58.7925	-21.4371	-153.896	-54.9867	-29.9249	-119.843	-67.4092	-36.0073	-94.8737	-76.3923	-9.82713	-162.611	-73.4568	-20.1361	-134.657	-85.8277	-25.1256	-105.848	-87.2676	-5.20821	-169.37	-82.8576	-6.43415	-145.102	-93.273	-11.6405	-122.704	-95.9588	-5.77181	-206.549	-52.9871	4.27963	-225.939	-48.0605	25.1786	-204.716	-18.9166	7.87982	
138	1.15	-181.468	-5.27922	36.4167	-148.016	-6.22798	34.4773	-114.382	-11.7423	26.6835	-94.4669	-19.1639	25.9354	-144.504	-43.9602	-23.499	-115.402	-58.7837	-26.4786	-88.4874	-62.7844	-13.6679	-147.922	-64.8245	-26.8553	-115.367	-73.6003	-27.4624	-89.9209	-77.2761	-3.04623	-157.565	-76.3904	-13.6204	-127.522	-87.2248	-16.823	-104.088	-93.2298	2.74135	-163.208	-84.973	0.046946	-139.65	-97.4062	-2.67614	-118.264	-98.5815	3.7704	-202.24	-61.1074	4.37797	-225.055	-49.6592	27.938	-201.509	-23.2083	7.54224	
139	1.15833	-178.437	-4.10359	34.2922	-144.988	-5.11907	33.3207	-116.266	-12.783	28.8946	-97.5461	-20.1678	28.5079	-140.377	-45.5219	-21.4445	-110.478	-58.5194	-23.2491	-89.4523	-64.7517	-10.3565	-143.102	-70.6016	-22.1703	-114.871	-76.3281	-23.3179	-85.8726	-75.7323	0.755636	-149.975	-80.8441	-8.34666	-120.248	-91.4778	-8.47192	-95.4804	-89.8075	8.66936	-163.034	-88.8785	9.17313	-137.929	-98.945	4.75086	-111.099	-99.8267	14.9888	-200.645	-61.2888	11.5737	-220.322	-56.1196	25.7866	-202.635	-28.8714	11.5344	
140	1.16667	-181.244	-6.02857	33.3812	-148.67	-1.77535	34.3562	-117.922	-7.00864	30.0531	-93.968	-15.2633	28.8675	-139.915	-49.1302	-16.698	-109.319	-60.5764	-19.1172	-86.5279	-64.2709	-6.96025	-142.029	-66.6117	-17.0426	-110.54	-76.6767	-17.9986	-81.1641	-72.0533	7.66854	-146.643	-79.1995	-5.12597	-114.354	-87.3183	-4.84911	-90.7468	-85.0528	11.7721	-156.811	-89.6635	12.1073	-132.569	-96.9576	9.1763	-109.608	-93.5873	16.0934	-196.981	-64.238	13.4026	-221.242	-55.8301	31.3122	-200.792	-28.9697	7.88222	
141	1.175	-184.66	-3.43661	32.2972	-152.188	-1.05964	31.3752	-121.556	1.59272	27.0847	-101.424	-7.54599	27.6172	-140.227	-44.1745	-16.7727	-112.13	-54.6193	-19.6642	-82.1551	-55.6938	-7.81069	-141.103	-67.399	-15.4645	-103.677	-69.8957	-17.0161	-78.6402	-65.0222	5.82564	-142.012	-81.9103	-2.70432	-114.685	-86.3249	-1.63687	-90.4544	-83.5327	13.7234	-151.545	-90.6677	12.4208	-130.329	-94.7861	10.735	-100.919	-89.6739	17.9894	-191.958	-67.4173	12.7611	-217.411	-61.7681	29.0208	-201.447	-33.8652	11.5172	
142	1.18333	-189.15	-0.467903	31.1533	-155.757	3.41175	27.8378	-125.087	5.40515	23.2206	-102.869	-1.91844	22.9057	-141.38	-43.025	-18.0588	-110.902	-53.0368	-19.1847	-85.7017	-51.882	-9.09125	-136.684	-62.6855	-17.0351	-105.277	-68.2483	-16.6952	-77.3119	-60.1995	9.11649	-142.144	-75.2718	-2.34799	-112.336	-81.6994	-1.42993	-84.365	-70.2375	13.9353	-148.463	-88.4947	14.1039	-126.021	-87.7371	10.5434	-99.7653	-86.7804	18.5588	-192.292	-66.1132	13.7688	-216.202	-64.703	29.8152	-203.737	-35.6472	10.9057	
143	1.19167	-191.273	-0.811518	27.164	-159.106	4.62325	24.6432	-129.926	9.65082	19.4267	-106.212	4.34126	18.3259	-141.578	-40.4225	-18.7594	-112.378	-47.9705	-22.2298	-85.2646	-44.4317	-11.4989	-135.769	-63.8209	-16.6418	-103.285	-64.2007	-15.8732	-76.2268	-50.5386	5.56334	-141.924	-73.7635	-1.64579	-108.202	-77.0153	-0.953031	-87.1507	-68.0909	12.2936	-150.279	-84.17	17.496	-124.184	-83.3671	10.7387	-95.9537	-78.289	19.7641	-191.368	-65.0379	11.2327	-215.835	-64.3322	31.5115	-203.546	-35.8144	11.2184	
144	1.2	-194.936	0.0392596	26.1711	-162.232	10.6065	18.874	-133.264	14.0064	13.7219	-107.85	12.9804	11.3881	-144.692	-38.6481	-20.6814	-112.828	-41.3964	-25.1457	-84.2859	-36.854	-14.9838	-139.35	-60.0014	-17.2912	-107.685	-59.6469	-19.6617	-77.8609	-42.5488	1.3613	-138.15	-70.0578	-4.77121	-112.821	-71.7622	-4.66156	-84.9526	-60.372	13.9268	-149.259	-76.5638	16.2029	-121.183	-78.8646	11.4128	-99.5803	-73.7448	16.8289	-192.003	-63.586	12.8198	-216.772	-62.7744	31.4611	-203.736	-33.9389	7.58802	
145	1.20833	-196.266	2.38081	20.4857	-167.039	12.2316	15.9201	-136.767	17.2087	8.56454	-113.874	17.24	6.71585	-143.942	-37.793	-23.1671	-117.276	-40.2243	-27.2225	-91.1462	-34.3769	-20.3661	-141.561	-57.75	-17.3907	-109.749	-57.0214	-20.9832	-78.4495	-37.5918	-2.65672	-143.899	-65.6007	-4.09707	-111.889	-67.941	-5.04238	-87.3904	-52.6617	10.6066	-145.913	-77.772	12.9032	-122.552	-76.6507	10.7566	-98.2092	-68.168	15.9419	-192.399	-64.3592	15.9799	-217.329	-63.5741	32.3902	-208.477	-32.6675	8.26976	
146	1.21667	-200.754	-0.704078	21.8234	-171.414	11.6634	14.0129	-145.152	24.3408	5.32213	-121.135	19.4851	2.87379	-149.219	-37.0471	-24.2379	-122.593	-35.911	-32.1643	-90.1859	-30.4581	-23.6649	-145.526	-53.6883	-22.1926	-112.502	-53.6083	-24.7781	-84.2929	-35.9736	-8.68653	-143.283	-65.1849	-8.04662	-111.277	-64.0529	-8.75412	-91.5752	-52.5359	4.55496	-147.94	-73.8082	13.1408	-125.585	-71.4465	5.92382	-99.5962	-61.6916	8.69884	-194.453	-62.0464	15.5362	-217.381	-62.1481	31.5343	-212.395	-35.7733	7.16442	
147	1.225	-203.099	1.39248	18.3549	-176.207	16.5745	9.74583	-148.831	19.7377	0.417429	-124.94	25.1528	-5.55957	-155.718	-33.9889	-29.7252	-126.743	-36.586	-36.0287	-99.3226	-31.0114	-31.4485	-147.561	-55.7191	-23.0875	-118.137	-52.6493	-30.175	-89.3026	-35.6676	-15.7226	-148.373	-65.8604	-7.69802	-117.494	-61.8418	-14.0462	-92.2957	-49.0658	1.52157	-150.956	-74.6734	10.5908	-125.918	-69.3358	2.21146	-101.137	-61.4288	4.70753	-194.797	-64.0233	13.8188	-222.271	-57.9416	33.7355	-215.527	-30.387	6.45391	
148	1.23333	-208.898	3.71259	15.674	-178.703	14.817	3.48767	-153.704	21.2415	-6.78647	-129.588	26.5506	-13.0806	-162.012	-36.7844	-31.4339	-133.038	-41.1921	-40.0151	-102.935	-36.2694	-37.0685	-154.865	-54.1156	-29.2009	-122.413	-52.9651	-36.7599	-92.2113	-38.2127	-20.7672	-151.153	-67.4029	-11.7034	-122.887	-63.9038	-19.4216	-97.3057	-46.2195	-8.69726	-155.249	-72.4645	7.20425	-130.749	-70.0861	-3.66936	-104.609	-62.3343	-2.10407	-197.814	-62.9307	11.9954	-225.778	-55.9687	32.2674	-218.08	-32.8607	4.38383	
149	1.24167	-210.071	2.22005	13.2275	-183.779	18.6052	0.132379	-154.687	23.0376	-15.7412	-131.339	22.2966	-22.7871	-164.363	-39.8301	-38.3454	-140.628	-44.9548	-46.3773	-108.336	-36.6503	-47.4758	-161.98	-54.8967	-33.2011	-130.263	-58.4692	-43.4925	-95.6919	-37.6796	-31.0369	-158.259	-65.3306	-19.2354	-127.599	-66.8474	-26.25	-103.249	-54.827	-16.8095	-160.786	-72.1199	4.18143	-138.103	-75.7933	-6.82875	-110.697	-66.4359	-8.75574	-202.105	-63.6198	10.3928	-224.336	-58.0471	33.0111	-222.593	-30.3612	1.67554	
